# xmcd CD database file
#
# Track frame offsets:
#	150
#	20438
#	38351
#	56166
#	73752
#	89679
#	108351
#	124891
#	144107
#	159519
#	175679
#	191661
#	207141
#	226310
#	243812
#	264625
#	282629
#	303528
#	319300
#	336894
#
# Disc length: 4723 seconds
#
# Revision: 0
# Processed by: cddbd v1.5.2PL0 Copyright (c) Steve Scherf et al.
# Submitted via: CDex 1.70beta2
#
DISCID=21127114
DTITLE=Yanni - Voices
DYEAR=1900
DGENRE=New Age
TTITLE0=Omaggio (Tribute)
TTITLE1=The Keeper
TTITLE2=Our Days
TTITLE3=Never Levae The Sun
TTITLE4=Before The Night Ends
TTITLE5=1001
TTITLE6=Mas Alla
TTITLE7=Unico Amore (Enchantment)
TTITLE8=Vivi Tuo Sogno (Almost A Whisper)
TTITLE9=Orchid
TTITLE10=Set Me Free
TTITLE11=Kill Me With Your Love
TTITLE12=Love Take Me
TTITLE13=Mi Todo Eres Tu (Until The Last Moment)
TTITLE14=Ritual De Amore (Desire)
TTITLE15=Moments Without Time
TTITLE16=I'm So
TTITLE17=Nei Tuoi Occhi (In The Mirror)
TTITLE18=Armare Di Neovo (Adagio in C Minor)
TTITLE19=In The Morning Light
EXTD=
EXTT0=
EXTT1=
EXTT2=
EXTT3=
EXTT4=
EXTT5=
EXTT6=
EXTT7=
EXTT8=
EXTT9=
EXTT10=
EXTT11=
EXTT12=
EXTT13=
EXTT14=
EXTT15=
EXTT16=
EXTT17=
EXTT18=
EXTT19=
PLAYORDER=
